<?xml version="1.0" standalone="no"?>
<!DOCTYPE svg PUBLIC "-//W3C//DTD SVG 20010904//EN"
 "http://www.w3.org/TR/2001/REC-SVG-20010904/DTD/svg10.dtd">
<svg version="1.0" xmlns="http://www.w3.org/2000/svg"
 width="242.000000pt" height="242.000000pt" viewBox="0 0 242.000000 242.000000"
 preserveAspectRatio="xMidYMid meet">
<metadata>
Created by potrace 1.11, written by Peter Selinger 2001-2013
</metadata>
<g transform="translate(0.000000,242.000000) scale(0.100000,-0.100000)"
fill="#000000" stroke="none">
<path d="M1095 2117 c-139 -47 -226 -130 -275 -264 -33 -92 -26 -212 18 -306
119 -255 457 -313 658 -113 168 168 160 426 -17 591 -75 69 -146 97 -259 101
-53 3 -100 -1 -125 -9z"/>
<path d="M569 1192 c-158 -42 -271 -167 -301 -332 -30 -172 68 -357 231 -434
61 -29 74 -31 176 -31 105 0 114 2 177 33 79 39 154 116 194 200 52 109 43
267 -22 378 -55 94 -169 172 -284 194 -70 13 -93 12 -171 -8z"/>
<path d="M1639 1192 c-116 -31 -211 -108 -265 -217 -100 -205 -14 -450 194
-548 63 -30 74 -32 177 -32 100 0 115 3 167 28 87 43 152 107 195 193 121 245
-25 532 -297 584 -70 13 -93 12 -171 -8z"/>
</g>
</svg>
